<svg width="26" height="22" viewBox="0 0 26 22" fill="none" xmlns="http://www.w3.org/2000/svg">
<path d="M1.0367 9.941C0.991314 9.75904 0.987979 9.56914 1.02695 9.38569C1.06591 9.20225 1.14616 9.0301 1.26159 8.8823C1.37702 8.7345 1.5246 8.61494 1.69314 8.5327C1.86167 8.45045 2.04673 8.40768 2.23426 8.40762H23.7657C23.9533 8.40768 24.1383 8.45045 24.3069 8.5327C24.4754 8.61494 24.623 8.7345 24.7384 8.8823C24.8538 9.0301 24.9341 9.20225 24.9731 9.38569C25.012 9.56914 25.0087 9.75904 24.9633 9.941L22.7274 18.8832C22.5939 19.4174 22.2857 19.8916 21.8517 20.2305C21.4177 20.5694 20.8829 20.7536 20.3323 20.7537H5.66769C5.11707 20.7536 4.58228 20.5694 4.1483 20.2305C3.71433 19.8916 3.40609 19.4174 3.27256 18.8832L1.0367 9.94223V9.941Z" stroke="black" stroke-width="1.5" stroke-linejoin="round"/>
<path d="M9.29622 13.346V15.8152M16.7038 13.346V15.8152M5.59241 8.40762L10.5308 1M20.4076 8.40762L15.4692 1" stroke="black" stroke-width="1.5" stroke-linecap="round"/>
</svg>
