<svg width="50" height="50" viewBox="0 0 50 50" fill="none" xmlns="http://www.w3.org/2000/svg">
<g id="Group 545">
<path id="Vector" d="M20.5 14.1141C20.1022 14.1141 19.7206 14.2779 19.4393 14.5696C19.158 14.8612 19 15.2568 19 15.6692C19 16.0817 19.158 16.4772 19.4393 16.7689C19.7206 17.0605 20.1022 17.2243 20.5 17.2243C20.8978 17.2243 21.2794 17.0605 21.5607 16.7689C21.842 16.4772 22 16.0817 22 15.6692C22 15.2568 21.842 14.8612 21.5607 14.5696C21.2794 14.2779 20.8978 14.1141 20.5 14.1141ZM16.255 14.1141C16.5649 13.2035 17.1396 12.415 17.8999 11.8573C18.6602 11.2995 19.5686 11 20.5 11C21.4314 11 22.3398 11.2995 23.1001 11.8573C23.8604 12.415 24.4351 13.2035 24.745 14.1141H35.5C35.8978 14.1141 36.2794 14.2779 36.5607 14.5696C36.842 14.8612 37 15.2568 37 15.6692C37 16.0817 36.842 16.4772 36.5607 16.7689C36.2794 17.0605 35.8978 17.2243 35.5 17.2243H24.745C24.4351 18.1349 23.8604 18.9234 23.1001 19.4812C22.3398 20.0389 21.4314 20.3384 20.5 20.3384C19.5686 20.3384 18.6602 20.0389 17.8999 19.4812C17.1396 18.9234 16.5649 18.1349 16.255 17.2243H14.5C14.1022 17.2243 13.7206 17.0605 13.4393 16.7689C13.158 16.4772 13 16.0817 13 15.6692C13 15.2568 13.158 14.8612 13.4393 14.5696C13.7206 14.2779 14.1022 14.1141 14.5 14.1141H16.255ZM29.5 23.4449C29.1022 23.4449 28.7206 23.6087 28.4393 23.9004C28.158 24.192 28 24.5876 28 25C28 25.4124 28.158 25.808 28.4393 26.0996C28.7206 26.3913 29.1022 26.5551 29.5 26.5551C29.8978 26.5551 30.2794 26.3913 30.5607 26.0996C30.842 25.808 31 25.4124 31 25C31 24.5876 30.842 24.192 30.5607 23.9004C30.2794 23.6087 29.8978 23.4449 29.5 23.4449ZM25.255 23.4449C25.5649 22.5343 26.1396 21.7458 26.8999 21.188C27.6602 20.6303 28.5686 20.3308 29.5 20.3308C30.4314 20.3308 31.3398 20.6303 32.1001 21.188C32.8604 21.7458 33.4351 22.5343 33.745 23.4449H35.5C35.8978 23.4449 36.2794 23.6087 36.5607 23.9004C36.842 24.192 37 24.5876 37 25C37 25.4124 36.842 25.808 36.5607 26.0996C36.2794 26.3913 35.8978 26.5551 35.5 26.5551H33.745C33.4351 27.4657 32.8604 28.2542 32.1001 28.812C31.3398 29.3697 30.4314 29.6692 29.5 29.6692C28.5686 29.6692 27.6602 29.3697 26.8999 28.812C26.1396 28.2542 25.5649 27.4657 25.255 26.5551H14.5C14.1022 26.5551 13.7206 26.3913 13.4393 26.0996C13.158 25.808 13 25.4124 13 25C13 24.5876 13.158 24.192 13.4393 23.9004C13.7206 23.6087 14.1022 23.4449 14.5 23.4449H25.255ZM20.5 32.7757C20.1022 32.7757 19.7206 32.9395 19.4393 33.2311C19.158 33.5228 19 33.9183 19 34.3308C19 34.7432 19.158 35.1388 19.4393 35.4304C19.7206 35.7221 20.1022 35.8859 20.5 35.8859C20.8978 35.8859 21.2794 35.7221 21.5607 35.4304C21.842 35.1388 22 34.7432 22 34.3308C22 33.9183 21.842 33.5228 21.5607 33.2311C21.2794 32.9395 20.8978 32.7757 20.5 32.7757ZM16.255 32.7757C16.5649 31.8651 17.1396 31.0766 17.8999 30.5188C18.6602 29.9611 19.5686 29.6616 20.5 29.6616C21.4314 29.6616 22.3398 29.9611 23.1001 30.5188C23.8604 31.0766 24.4351 31.8651 24.745 32.7757H35.5C35.8978 32.7757 36.2794 32.9395 36.5607 33.2311C36.842 33.5228 37 33.9183 37 34.3308C37 34.7432 36.842 35.1388 36.5607 35.4304C36.2794 35.7221 35.8978 35.8859 35.5 35.8859H24.745C24.4351 36.7965 23.8604 37.585 23.1001 38.1427C22.3398 38.7005 21.4314 39 20.5 39C19.5686 39 18.6602 38.7005 17.8999 38.1427C17.1396 37.585 16.5649 36.7965 16.255 35.8859H14.5C14.1022 35.8859 13.7206 35.7221 13.4393 35.4304C13.158 35.1388 13 34.7432 13 34.3308C13 33.9183 13.158 33.5228 13.4393 33.2311C13.7206 32.9395 14.1022 32.7757 14.5 32.7757H16.255Z" fill="black"/>
<rect id="Rectangle 5165" x="0.75" y="0.75" width="48.5" height="48.5" rx="7.25" stroke="#E8E8E8" stroke-width="1.5"/>
</g>
</svg>
