<svg width="96" height="16" viewBox="0 0 96 16" fill="none" xmlns="http://www.w3.org/2000/svg">
<g id="Group 532">
<g id="Group">
<path id="Vector" d="M13.1867 11.8138C12.0932 12.0763 10.9517 12.0636 9.86436 11.7767C8.777 11.4899 7.77777 10.9378 6.95613 10.17C6.13449 9.40217 5.5161 8.44257 5.15633 7.37712C4.79656 6.31166 4.70664 5.17361 4.89463 4.06488C4.86604 4.09249 4.83586 4.1184 4.80423 4.14248C4.58023 4.31288 4.30023 4.37608 3.74022 4.50248L3.23222 4.61769C1.2642 5.06329 0.280191 5.28569 0.0457884 6.0385C-0.187814 6.79051 0.482593 7.57531 1.82421 9.14413L2.17141 9.54973C2.55221 9.99534 2.74341 10.2185 2.82901 10.4937C2.91461 10.7697 2.88581 11.0673 2.82821 11.6618L2.77541 12.2034C2.57301 14.297 2.47141 15.3434 3.08422 15.8082C3.69702 16.2738 4.61863 15.8498 6.46025 15.001L6.93785 14.7818C7.46106 14.5402 7.72266 14.4202 8.00026 14.4202C8.27786 14.4202 8.53947 14.5402 9.06347 14.7818L9.53948 15.001C11.3819 15.849 12.3035 16.273 12.9155 15.809C13.5291 15.3434 13.4275 14.297 13.2251 12.2034L13.1867 11.8138Z" fill="#F5C752"/>
<path id="Vector_2" d="M5.7226 2.72643L5.4602 3.19683C5.1722 3.71363 5.0282 3.97204 4.8042 4.14244C4.8362 4.11844 4.8658 4.09284 4.8946 4.06484C4.70656 5.17365 4.79647 6.3118 5.15628 7.37734C5.51608 8.44287 6.13456 9.40253 6.9563 10.1704C7.77804 10.9382 8.77739 11.4902 9.86486 11.777C10.9523 12.0638 12.0939 12.0764 13.1875 11.8137L13.1715 11.6617C13.1147 11.0673 13.0859 10.7697 13.1715 10.4937C13.2571 10.2185 13.4475 9.99529 13.8291 9.54969L14.1763 9.14408C15.5179 7.57607 16.1883 6.79126 15.9539 6.03846C15.7203 5.28565 14.7363 5.06245 12.7683 4.61764L12.2595 4.50244C11.7003 4.37604 11.4203 4.31284 11.1955 4.14244C10.9715 3.97204 10.8275 3.71363 10.5394 3.19683L10.2778 2.72643C9.26424 0.908808 8.75783 0 8.00023 0C7.24262 0 6.73621 0.908808 5.7226 2.72643Z" fill="#E8BA46"/>
</g>
<g id="Group_2">
<path id="Vector_3" d="M33.1867 11.8138C32.0932 12.0763 30.9517 12.0636 29.8644 11.7767C28.777 11.4899 27.7778 10.9378 26.9561 10.17C26.1345 9.40217 25.5161 8.44257 25.1563 7.37712C24.7966 6.31166 24.7066 5.17361 24.8946 4.06488C24.866 4.09249 24.8359 4.1184 24.8042 4.14248C24.5802 4.31288 24.3002 4.37608 23.7402 4.50248L23.2322 4.61769C21.2642 5.06329 20.2802 5.28569 20.0458 6.0385C19.8122 6.79051 20.4826 7.57531 21.8242 9.14413L22.1714 9.54973C22.5522 9.99534 22.7434 10.2185 22.829 10.4937C22.9146 10.7697 22.8858 11.0673 22.8282 11.6618L22.7754 12.2034C22.573 14.297 22.4714 15.3434 23.0842 15.8082C23.697 16.2738 24.6186 15.8498 26.4602 15.001L26.9379 14.7818C27.4611 14.5402 27.7227 14.4202 28.0003 14.4202C28.2779 14.4202 28.5395 14.5402 29.0635 14.7818L29.5395 15.001C31.3819 15.849 32.3035 16.273 32.9155 15.809C33.5291 15.3434 33.4275 14.297 33.2251 12.2034L33.1867 11.8138Z" fill="#F5C752"/>
<path id="Vector_4" d="M25.7226 2.72643L25.4602 3.19683C25.1722 3.71363 25.0282 3.97204 24.8042 4.14244C24.8362 4.11844 24.8658 4.09284 24.8946 4.06484C24.7066 5.17365 24.7965 6.3118 25.1563 7.37734C25.5161 8.44287 26.1346 9.40253 26.9563 10.1704C27.778 10.9382 28.7774 11.4902 29.8649 11.777C30.9523 12.0638 32.0939 12.0764 33.1875 11.8137L33.1715 11.6617C33.1147 11.0673 33.0859 10.7697 33.1715 10.4937C33.2571 10.2185 33.4475 9.99529 33.8291 9.54969L34.1763 9.14408C35.5179 7.57607 36.1883 6.79126 35.9539 6.03846C35.7203 5.28565 34.7363 5.06245 32.7683 4.61764L32.2595 4.50244C31.7003 4.37604 31.4203 4.31284 31.1955 4.14244C30.9715 3.97204 30.8275 3.71363 30.5394 3.19683L30.2778 2.72643C29.2642 0.908808 28.7578 0 28.0002 0C27.2426 0 26.7362 0.908808 25.7226 2.72643Z" fill="#E8BA46"/>
</g>
<g id="Group_3">
<path id="Vector_5" d="M53.1867 11.8138C52.0932 12.0763 50.9517 12.0636 49.8644 11.7767C48.777 11.4899 47.7778 10.9378 46.9561 10.17C46.1345 9.40217 45.5161 8.44257 45.1563 7.37712C44.7966 6.31166 44.7066 5.17361 44.8946 4.06488C44.866 4.09249 44.8359 4.1184 44.8042 4.14248C44.5802 4.31288 44.3002 4.37608 43.7402 4.50248L43.2322 4.61769C41.2642 5.06329 40.2802 5.28569 40.0458 6.0385C39.8122 6.79051 40.4826 7.57531 41.8242 9.14413L42.1714 9.54973C42.5522 9.99534 42.7434 10.2185 42.829 10.4937C42.9146 10.7697 42.8858 11.0673 42.8282 11.6618L42.7754 12.2034C42.573 14.297 42.4714 15.3434 43.0842 15.8082C43.697 16.2738 44.6186 15.8498 46.4602 15.001L46.9379 14.7818C47.4611 14.5402 47.7227 14.4202 48.0003 14.4202C48.2779 14.4202 48.5395 14.5402 49.0635 14.7818L49.5395 15.001C51.3819 15.849 52.3035 16.273 52.9155 15.809C53.5291 15.3434 53.4275 14.297 53.2251 12.2034L53.1867 11.8138Z" fill="#F5C752"/>
<path id="Vector_6" d="M45.7226 2.72643L45.4602 3.19683C45.1722 3.71363 45.0282 3.97204 44.8042 4.14244C44.8362 4.11844 44.8658 4.09284 44.8946 4.06484C44.7066 5.17365 44.7965 6.3118 45.1563 7.37734C45.5161 8.44287 46.1346 9.40253 46.9563 10.1704C47.778 10.9382 48.7774 11.4902 49.8649 11.777C50.9523 12.0638 52.0939 12.0764 53.1875 11.8137L53.1715 11.6617C53.1147 11.0673 53.0859 10.7697 53.1715 10.4937C53.2571 10.2185 53.4475 9.99529 53.8291 9.54969L54.1763 9.14408C55.5179 7.57607 56.1883 6.79126 55.9539 6.03846C55.7203 5.28565 54.7363 5.06245 52.7683 4.61764L52.2595 4.50244C51.7003 4.37604 51.4203 4.31284 51.1955 4.14244C50.9715 3.97204 50.8275 3.71363 50.5394 3.19683L50.2778 2.72643C49.2642 0.908808 48.7578 0 48.0002 0C47.2426 0 46.7362 0.908808 45.7226 2.72643Z" fill="#E8BA46"/>
</g>
<g id="Group_4">
<path id="Vector_7" d="M73.1867 11.8138C72.0932 12.0763 70.9517 12.0636 69.8644 11.7767C68.777 11.4899 67.7778 10.9378 66.9561 10.17C66.1345 9.40217 65.5161 8.44257 65.1563 7.37712C64.7966 6.31166 64.7066 5.17361 64.8946 4.06488C64.866 4.09249 64.8359 4.1184 64.8042 4.14248C64.5802 4.31288 64.3002 4.37608 63.7402 4.50248L63.2322 4.61769C61.2642 5.06329 60.2802 5.28569 60.0458 6.0385C59.8122 6.79051 60.4826 7.57531 61.8242 9.14413L62.1714 9.54973C62.5522 9.99534 62.7434 10.2185 62.829 10.4937C62.9146 10.7697 62.8858 11.0673 62.8282 11.6618L62.7754 12.2034C62.573 14.297 62.4714 15.3434 63.0842 15.8082C63.697 16.2738 64.6186 15.8498 66.4602 15.001L66.9379 14.7818C67.4611 14.5402 67.7227 14.4202 68.0003 14.4202C68.2779 14.4202 68.5395 14.5402 69.0635 14.7818L69.5395 15.001C71.3819 15.849 72.3035 16.273 72.9155 15.809C73.5291 15.3434 73.4275 14.297 73.2251 12.2034L73.1867 11.8138Z" fill="#F5C752"/>
<path id="Vector_8" d="M65.7226 2.72643L65.4602 3.19683C65.1722 3.71363 65.0282 3.97204 64.8042 4.14244C64.8362 4.11844 64.8658 4.09284 64.8946 4.06484C64.7066 5.17365 64.7965 6.3118 65.1563 7.37734C65.5161 8.44287 66.1346 9.40253 66.9563 10.1704C67.778 10.9382 68.7774 11.4902 69.8649 11.777C70.9523 12.0638 72.0939 12.0764 73.1875 11.8137L73.1715 11.6617C73.1147 11.0673 73.0859 10.7697 73.1715 10.4937C73.2571 10.2185 73.4475 9.99529 73.8291 9.54969L74.1763 9.14408C75.5179 7.57607 76.1883 6.79126 75.9539 6.03846C75.7203 5.28565 74.7363 5.06245 72.7683 4.61764L72.2595 4.50244C71.7003 4.37604 71.4203 4.31284 71.1955 4.14244C70.9715 3.97204 70.8275 3.71363 70.5394 3.19683L70.2778 2.72643C69.2642 0.908808 68.7578 0 68.0002 0C67.2426 0 66.7362 0.908808 65.7226 2.72643Z" fill="#E8BA46"/>
</g>
<g id="Group_5">
<path id="Vector_9" d="M93.1867 11.8138C92.0932 12.0763 90.9517 12.0636 89.8644 11.7767C88.777 11.4899 87.7778 10.9378 86.9561 10.17C86.1345 9.40217 85.5161 8.44257 85.1563 7.37712C84.7966 6.31166 84.7066 5.17361 84.8946 4.06488C84.866 4.09249 84.8359 4.1184 84.8042 4.14248C84.5802 4.31288 84.3002 4.37608 83.7402 4.50248L83.2322 4.61769C81.2642 5.06329 80.2802 5.28569 80.0458 6.0385C79.8122 6.79051 80.4826 7.57531 81.8242 9.14413L82.1714 9.54973C82.5522 9.99534 82.7434 10.2185 82.829 10.4937C82.9146 10.7697 82.8858 11.0673 82.8282 11.6618L82.7754 12.2034C82.573 14.297 82.4714 15.3434 83.0842 15.8082C83.697 16.2738 84.6186 15.8498 86.4602 15.001L86.9379 14.7818C87.4611 14.5402 87.7227 14.4202 88.0003 14.4202C88.2779 14.4202 88.5395 14.5402 89.0635 14.7818L89.5395 15.001C91.3819 15.849 92.3035 16.273 92.9155 15.809C93.5291 15.3434 93.4275 14.297 93.2251 12.2034L93.1867 11.8138Z" fill="#F5C752"/>
<path id="Vector_10" d="M85.7226 2.72643L85.4602 3.19683C85.1722 3.71363 85.0282 3.97204 84.8042 4.14244C84.8362 4.11844 84.8658 4.09284 84.8946 4.06484C84.7066 5.17365 84.7965 6.3118 85.1563 7.37734C85.5161 8.44287 86.1346 9.40253 86.9563 10.1704C87.778 10.9382 88.7774 11.4902 89.8649 11.777C90.9523 12.0638 92.0939 12.0764 93.1875 11.8137L93.1715 11.6617C93.1147 11.0673 93.0859 10.7697 93.1715 10.4937C93.2571 10.2185 93.4475 9.99529 93.8291 9.54969L94.1763 9.14408C95.5179 7.57607 96.1883 6.79126 95.9539 6.03846C95.7203 5.28565 94.7363 5.06245 92.7683 4.61764L92.2595 4.50244C91.7003 4.37604 91.4203 4.31284 91.1955 4.14244C90.9715 3.97204 90.8275 3.71363 90.5394 3.19683L90.2778 2.72643C89.2642 0.908808 88.7578 0 88.0002 0C87.2426 0 86.7362 0.908808 85.7226 2.72643Z" fill="#E8BA46"/>
</g>
</g>
</svg>
