<svg width="96" height="16" viewBox="0 0 96 16" fill="none" xmlns="http://www.w3.org/2000/svg">
<g id="Group 535">
<g id="Group">
<path id="Vector" d="M13.1867 11.8138C12.0932 12.0763 10.9517 12.0636 9.86436 11.7767C8.777 11.4899 7.77777 10.9378 6.95613 10.17C6.13449 9.40217 5.5161 8.44257 5.15633 7.37712C4.79656 6.31166 4.70664 5.17361 4.89463 4.06488C4.86604 4.09249 4.83586 4.1184 4.80423 4.14248C4.58023 4.31288 4.30023 4.37608 3.74022 4.50248L3.23222 4.61769C1.2642 5.06329 0.280191 5.28569 0.0457884 6.0385C-0.187814 6.79051 0.482593 7.57531 1.82421 9.14413L2.17141 9.54973C2.55221 9.99534 2.74341 10.2185 2.82901 10.4937C2.91461 10.7697 2.88581 11.0673 2.82821 11.6618L2.77541 12.2034C2.57301 14.297 2.47141 15.3434 3.08422 15.8082C3.69702 16.2738 4.61863 15.8498 6.46025 15.001L6.93785 14.7818C7.46106 14.5402 7.72266 14.4202 8.00026 14.4202C8.27786 14.4202 8.53947 14.5402 9.06347 14.7818L9.53948 15.001C11.3819 15.849 12.3035 16.273 12.9155 15.809C13.5291 15.3434 13.4275 14.297 13.2251 12.2034L13.1867 11.8138Z" fill="#F5C752"/>
<path id="Vector_2" d="M5.7226 2.72643L5.4602 3.19683C5.1722 3.71363 5.0282 3.97204 4.8042 4.14244C4.8362 4.11844 4.8658 4.09284 4.8946 4.06484C4.70656 5.17365 4.79647 6.3118 5.15628 7.37734C5.51608 8.44287 6.13456 9.40253 6.9563 10.1704C7.77804 10.9382 8.77739 11.4902 9.86486 11.777C10.9523 12.0638 12.0939 12.0764 13.1875 11.8137L13.1715 11.6617C13.1147 11.0673 13.0859 10.7697 13.1715 10.4937C13.2571 10.2185 13.4475 9.99529 13.8291 9.54969L14.1763 9.14408C15.5179 7.57607 16.1883 6.79126 15.9539 6.03846C15.7203 5.28565 14.7363 5.06245 12.7683 4.61764L12.2595 4.50244C11.7003 4.37604 11.4203 4.31284 11.1955 4.14244C10.9715 3.97204 10.8275 3.71363 10.5394 3.19683L10.2778 2.72643C9.26424 0.908808 8.75783 0 8.00023 0C7.24262 0 6.73621 0.908808 5.7226 2.72643Z" fill="#E8BA46"/>
</g>
<g id="Group_2">
<path id="Vector_3" d="M33.1867 11.8138C32.0932 12.0763 30.9517 12.0636 29.8644 11.7767C28.777 11.4899 27.7778 10.9378 26.9561 10.17C26.1345 9.40217 25.5161 8.44257 25.1563 7.37712C24.7966 6.31166 24.7066 5.17361 24.8946 4.06488C24.866 4.09249 24.8359 4.1184 24.8042 4.14248C24.5802 4.31288 24.3002 4.37608 23.7402 4.50248L23.2322 4.61769C21.2642 5.06329 20.2802 5.28569 20.0458 6.0385C19.8122 6.79051 20.4826 7.57531 21.8242 9.14413L22.1714 9.54973C22.5522 9.99534 22.7434 10.2185 22.829 10.4937C22.9146 10.7697 22.8858 11.0673 22.8282 11.6618L22.7754 12.2034C22.573 14.297 22.4714 15.3434 23.0842 15.8082C23.697 16.2738 24.6186 15.8498 26.4602 15.001L26.9379 14.7818C27.4611 14.5402 27.7227 14.4202 28.0003 14.4202C28.2779 14.4202 28.5395 14.5402 29.0635 14.7818L29.5395 15.001C31.3819 15.849 32.3035 16.273 32.9155 15.809C33.5291 15.3434 33.4275 14.297 33.2251 12.2034L33.1867 11.8138Z" fill="#F5C752"/>
<path id="Vector_4" d="M25.7226 2.72643L25.4602 3.19683C25.1722 3.71363 25.0282 3.97204 24.8042 4.14244C24.8362 4.11844 24.8658 4.09284 24.8946 4.06484C24.7066 5.17365 24.7965 6.3118 25.1563 7.37734C25.5161 8.44287 26.1346 9.40253 26.9563 10.1704C27.778 10.9382 28.7774 11.4902 29.8649 11.777C30.9523 12.0638 32.0939 12.0764 33.1875 11.8137L33.1715 11.6617C33.1147 11.0673 33.0859 10.7697 33.1715 10.4937C33.2571 10.2185 33.4475 9.99529 33.8291 9.54969L34.1763 9.14408C35.5179 7.57607 36.1883 6.79126 35.9539 6.03846C35.7203 5.28565 34.7363 5.06245 32.7683 4.61764L32.2595 4.50244C31.7003 4.37604 31.4203 4.31284 31.1955 4.14244C30.9715 3.97204 30.8275 3.71363 30.5394 3.19683L30.2778 2.72643C29.2642 0.908808 28.7578 0 28.0002 0C27.2426 0 26.7362 0.908808 25.7226 2.72643Z" fill="#E8BA46"/>
</g>
<g id="Group_3">
<path id="Vector_5" d="M53.1867 11.8138C52.0932 12.0763 50.9517 12.0636 49.8644 11.7767C48.777 11.4899 47.7778 10.9378 46.9561 10.17C46.1345 9.40217 45.5161 8.44257 45.1563 7.37712C44.7966 6.31166 44.7066 5.17361 44.8946 4.06488C44.866 4.09249 44.8359 4.1184 44.8042 4.14248C44.5802 4.31288 44.3002 4.37608 43.7402 4.50248L43.2322 4.61769C41.2642 5.06329 40.2802 5.28569 40.0458 6.0385C39.8122 6.79051 40.4826 7.57531 41.8242 9.14413L42.1714 9.54973C42.5522 9.99534 42.7434 10.2185 42.829 10.4937C42.9146 10.7697 42.8858 11.0673 42.8282 11.6618L42.7754 12.2034C42.573 14.297 42.4714 15.3434 43.0842 15.8082C43.697 16.2738 44.6186 15.8498 46.4602 15.001L46.9379 14.7818C47.4611 14.5402 47.7227 14.4202 48.0003 14.4202C48.2779 14.4202 48.5395 14.5402 49.0635 14.7818L49.5395 15.001C51.3819 15.849 52.3035 16.273 52.9155 15.809C53.5291 15.3434 53.4275 14.297 53.2251 12.2034L53.1867 11.8138Z" fill="#F5C752"/>
<path id="Vector_6" d="M45.7226 2.72643L45.4602 3.19683C45.1722 3.71363 45.0282 3.97204 44.8042 4.14244C44.8362 4.11844 44.8658 4.09284 44.8946 4.06484C44.7066 5.17365 44.7965 6.3118 45.1563 7.37734C45.5161 8.44287 46.1346 9.40253 46.9563 10.1704C47.778 10.9382 48.7774 11.4902 49.8649 11.777C50.9523 12.0638 52.0939 12.0764 53.1875 11.8137L53.1715 11.6617C53.1147 11.0673 53.0859 10.7697 53.1715 10.4937C53.2571 10.2185 53.4475 9.99529 53.8291 9.54969L54.1763 9.14408C55.5179 7.57607 56.1883 6.79126 55.9539 6.03846C55.7203 5.28565 54.7363 5.06245 52.7683 4.61764L52.2595 4.50244C51.7003 4.37604 51.4203 4.31284 51.1955 4.14244C50.9715 3.97204 50.8275 3.71363 50.5394 3.19683L50.2778 2.72643C49.2642 0.908808 48.7578 0 48.0002 0C47.2426 0 46.7362 0.908808 45.7226 2.72643Z" fill="#E8BA46"/>
</g>
<g id="Group_4">
<path id="Vector_7" d="M73.1867 11.8138C72.0932 12.0763 70.9517 12.0636 69.8644 11.7767C68.777 11.4899 67.7778 10.9378 66.9561 10.17C66.1345 9.40217 65.5161 8.44257 65.1563 7.37712C64.7966 6.31166 64.7066 5.17361 64.8946 4.06488C64.866 4.09249 64.8359 4.1184 64.8042 4.14248C64.5802 4.31288 64.3002 4.37608 63.7402 4.50248L63.2322 4.61769C61.2642 5.06329 60.2802 5.28569 60.0458 6.0385C59.8122 6.79051 60.4826 7.57531 61.8242 9.14413L62.1714 9.54973C62.5522 9.99534 62.7434 10.2185 62.829 10.4937C62.9146 10.7697 62.8858 11.0673 62.8282 11.6618L62.7754 12.2034C62.573 14.297 62.4714 15.3434 63.0842 15.8082C63.697 16.2738 64.6186 15.8498 66.4602 15.001L66.9379 14.7818C67.4611 14.5402 67.7227 14.4202 68.0003 14.4202C68.2779 14.4202 68.5395 14.5402 69.0635 14.7818L69.5395 15.001C71.3819 15.849 72.3035 16.273 72.9155 15.809C73.5291 15.3434 73.4275 14.297 73.2251 12.2034L73.1867 11.8138Z" fill="#F5C752"/>
<path id="Vector_8" d="M65.7226 2.72643L65.4602 3.19683C65.1722 3.71363 65.0282 3.97204 64.8042 4.14244C64.8362 4.11844 64.8658 4.09284 64.8946 4.06484C64.7066 5.17365 64.7965 6.3118 65.1563 7.37734C65.5161 8.44287 66.1346 9.40253 66.9563 10.1704C67.778 10.9382 68.7774 11.4902 69.8649 11.777C70.9523 12.0638 72.0939 12.0764 73.1875 11.8137L73.1715 11.6617C73.1147 11.0673 73.0859 10.7697 73.1715 10.4937C73.2571 10.2185 73.4475 9.99529 73.8291 9.54969L74.1763 9.14408C75.5179 7.57607 76.1883 6.79126 75.9539 6.03846C75.7203 5.28565 74.7363 5.06245 72.7683 4.61764L72.2595 4.50244C71.7003 4.37604 71.4203 4.31284 71.1955 4.14244C70.9715 3.97204 70.8275 3.71363 70.5394 3.19683L70.2778 2.72643C69.2642 0.908808 68.7578 0 68.0002 0C67.2426 0 66.7362 0.908808 65.7226 2.72643Z" fill="#E8BA46"/>
</g>
<g id="Group_5">
<g id="Union">
<mask id="path-9-inside-1_1_129" fill="white">
<path fill-rule="evenodd" clip-rule="evenodd" d="M85.4602 3.19683L85.7226 2.72643L85.7242 2.72355C86.7367 0.90785 87.243 0 88.0002 0C88.7574 0 89.2637 0.907851 90.2762 2.72355L90.2778 2.72643L90.5394 3.19683C90.8274 3.71363 90.9714 3.97204 91.1954 4.14244C91.42 4.31271 91.6998 4.37595 92.2582 4.50216L92.2594 4.50244L92.7682 4.61764C94.7362 5.06245 95.7203 5.28565 95.9539 6.03846C96.1883 6.79126 95.5178 7.57607 94.1762 9.14408L93.829 9.54969C93.4474 9.99529 93.257 10.2185 93.1714 10.4937C93.0861 10.7688 93.1144 11.0654 93.1709 11.656L93.1714 11.6617L93.1874 11.8137C93.1872 11.8138 93.187 11.8138 93.1867 11.8139L93.2251 12.2034L93.2255 12.2076C93.4276 14.2984 93.5287 15.3438 92.9155 15.8091C92.3035 16.2731 91.3819 15.8491 89.5395 15.001L89.0635 14.7818C88.5395 14.5402 88.2779 14.4202 88.0003 14.4202C87.7227 14.4202 87.4611 14.5402 86.9379 14.7818L86.4602 15.001C84.6186 15.8499 83.697 16.2739 83.0842 15.8083C82.4718 15.3438 82.5729 14.2984 82.775 12.2076L82.7754 12.2034L82.8282 11.6618C82.8858 11.0674 82.9146 10.7698 82.829 10.4938C82.7437 10.2194 82.5534 9.99676 82.1749 9.55387L82.1714 9.54979L81.8242 9.14419C80.4826 7.57537 79.8122 6.79057 80.0458 6.03856C80.2801 5.28618 81.2631 5.0636 83.2289 4.61851L83.2322 4.61775L83.7402 4.50255C84.3002 4.37614 84.5802 4.31294 84.8042 4.14254C84.8108 4.13753 84.8173 4.13245 84.8238 4.12728C84.8173 4.13241 84.8108 4.13746 84.8042 4.14244C85.0282 3.97204 85.1722 3.71364 85.4602 3.19683L85.4602 3.19683ZM84.866 4.09152C84.8757 4.08288 84.8852 4.07406 84.8945 4.06506C84.8945 4.06498 84.8945 4.06491 84.8946 4.06484C84.8851 4.07398 84.8757 4.08286 84.866 4.09152Z"/>
</mask>
<path d="M85.7226 2.72643L86.5959 3.21358L86.5959 3.21352L85.7226 2.72643ZM85.4602 3.19683L84.5868 2.70967L84.5555 2.76578L84.5317 2.82544L85.4602 3.19683ZM85.7242 2.72355L86.5975 3.21064L86.5975 3.2106L85.7242 2.72355ZM90.2762 2.72355L89.4028 3.2106L89.4029 3.21067L90.2762 2.72355ZM90.2778 2.72643L91.1517 2.2404L91.1511 2.23931L90.2778 2.72643ZM90.5394 3.19683L89.6655 3.68285L89.6659 3.68362L90.5394 3.19683ZM91.1954 4.14244L90.59 4.93833L90.5913 4.93937L91.1954 4.14244ZM92.2582 4.50216L92.0377 5.47755L92.0379 5.4776L92.2582 4.50216ZM92.2594 4.50244L92.4802 3.52713L92.4797 3.527L92.2594 4.50244ZM92.7682 4.61764L92.5474 5.59296L92.5478 5.59304L92.7682 4.61764ZM95.9539 6.03846L94.9988 6.33482L94.9991 6.33575L95.9539 6.03846ZM94.1762 9.14408L94.9359 9.79438L94.9361 9.79421L94.1762 9.14408ZM93.829 9.54969L94.5886 10.2001L94.5887 10.2L93.829 9.54969ZM93.1714 10.4937L92.2166 10.1967L92.2163 10.1975L93.1714 10.4937ZM93.1709 11.656L94.1663 11.5609L94.1663 11.5609L93.1709 11.656ZM93.1714 11.6617L92.1759 11.7568L92.1769 11.7664L93.1714 11.6617ZM93.1874 11.8137L93.4217 12.7859L94.2737 12.5806L94.1819 11.709L93.1874 11.8137ZM93.1867 11.8139L92.9525 10.8417L92.1061 11.0456L92.1915 11.912L93.1867 11.8139ZM93.2251 12.2034L94.2205 12.107L94.2203 12.1053L93.2251 12.2034ZM93.2255 12.2076L94.2209 12.1114L94.2209 12.1112L93.2255 12.2076ZM92.9155 15.8091L93.5197 16.6059L93.52 16.6057L92.9155 15.8091ZM89.5395 15.001L89.1212 15.9094L89.1214 15.9094L89.5395 15.001ZM89.0635 14.7818L88.6448 15.69L88.6452 15.6902L89.0635 14.7818ZM86.9379 14.7818L87.355 15.6907L87.3571 15.6897L86.9379 14.7818ZM86.4602 15.001L86.0431 14.0922L86.0417 14.0929L86.4602 15.001ZM83.0842 15.8083L83.6892 15.012L83.6885 15.0115L83.0842 15.8083ZM82.775 12.2076L83.7704 12.3038L83.7704 12.3038L82.775 12.2076ZM82.7754 12.2034L81.7801 12.1064L81.7801 12.1072L82.7754 12.2034ZM82.8282 11.6618L83.8235 11.7588L83.8236 11.7583L82.8282 11.6618ZM82.829 10.4938L83.7841 10.1976L83.7839 10.1968L82.829 10.4938ZM82.1749 9.55387L82.9351 8.9042L82.9351 8.9042L82.1749 9.55387ZM82.1714 9.54979L82.9316 8.90012L82.9311 8.89949L82.1714 9.54979ZM81.8242 9.14419L81.0642 9.79412L81.0645 9.79449L81.8242 9.14419ZM80.0458 6.03856L79.091 5.74127L79.0908 5.74191L80.0458 6.03856ZM83.2289 4.61851L83.008 3.64319L83.008 3.6432L83.2289 4.61851ZM83.2322 4.61775L83.453 5.59306L83.4534 5.59298L83.2322 4.61775ZM83.7402 4.50255L83.52 3.52708L83.5191 3.52731L83.7402 4.50255ZM84.8042 4.14254L85.4097 4.93843L85.41 4.9382L84.8042 4.14254ZM84.8238 4.12728L85.4488 4.90792L84.2016 3.34444L84.8238 4.12728ZM84.8042 4.14244L84.1987 3.34655L85.4042 4.94244L84.8042 4.14244ZM85.4602 3.19683L86.3337 3.68362L86.3648 3.62768L86.3886 3.56822L85.4602 3.19683ZM84.8945 4.06506L85.5891 4.78445L85.8249 4.55676L85.8802 4.23366L84.8945 4.06506ZM84.866 4.09152L84.1974 3.34792L85.5326 4.83697L84.866 4.09152ZM84.8946 4.06484L85.8802 4.23344L86.3976 1.20873L84.1975 3.34786L84.8946 4.06484ZM84.8492 2.23927L84.5868 2.70967L86.3335 3.68398L86.5959 3.21358L84.8492 2.23927ZM84.8508 2.23646L84.8492 2.23933L86.5959 3.21352L86.5975 3.21064L84.8508 2.23646ZM88.0002 -1C87.1423 -1 86.5676 -0.453943 86.1641 0.072702C85.7612 0.598539 85.3408 1.35789 84.8508 2.23651L86.5975 3.2106C87.1201 2.27351 87.459 1.67109 87.7517 1.28907C88.0438 0.907868 88.1008 1 88.0002 1V-1ZM91.1496 2.23651C90.6596 1.35789 90.2391 0.598539 89.8362 0.0727025C89.4327 -0.453943 88.8581 -1 88.0002 -1V1C87.8995 1 87.9566 0.907868 88.2486 1.28907C88.5413 1.67109 88.8803 2.27351 89.4028 3.2106L91.1496 2.23651ZM91.1511 2.23931L91.1495 2.23643L89.4029 3.21067L89.4045 3.21354L91.1511 2.23931ZM91.4134 2.71081L91.1517 2.2404L89.4039 3.21245L89.6655 3.68285L91.4134 2.71081ZM91.8009 3.34655C91.8008 3.34655 91.8008 3.34654 91.8007 3.34646C91.8007 3.34639 91.8003 3.34609 91.7997 3.34547C91.7984 3.34433 91.7952 3.34117 91.7897 3.33493C91.7781 3.32173 91.7573 3.29573 91.7243 3.24611C91.6509 3.13563 91.5643 2.98173 91.4129 2.71004L89.6659 3.68362C89.9104 4.12242 90.1603 4.61149 90.59 4.93833L91.8009 3.34655ZM92.4786 3.52676C92.1838 3.46013 92.0213 3.42258 91.9021 3.38504C91.8494 3.36843 91.8223 3.35686 91.8094 3.35071C91.8033 3.34781 91.8005 3.34612 91.7998 3.34572C91.7994 3.34548 91.7993 3.34539 91.7994 3.34544C91.7995 3.3455 91.7995 3.34554 91.7995 3.34551L90.5913 4.93937C91.0283 5.27059 91.5651 5.37072 92.0377 5.47755L92.4786 3.52676ZM92.4797 3.527L92.4784 3.52671L92.0379 5.4776L92.0392 5.47788L92.4797 3.527ZM92.989 3.64233L92.4802 3.52713L92.0386 5.47775L92.5474 5.59296L92.989 3.64233ZM96.9089 5.74209C96.6585 4.93506 96.0072 4.53022 95.3782 4.28225C94.7681 4.04169 93.9389 3.85701 92.9887 3.64225L92.5478 5.59304C93.5656 5.82308 94.2124 5.9724 94.6446 6.14285C94.8498 6.22374 94.9438 6.28661 94.9831 6.32031C94.9997 6.33459 95.0028 6.34045 95.0007 6.33732C94.9981 6.33357 94.9976 6.33097 94.9988 6.33482L96.9089 5.74209ZM94.9361 9.79421C95.5855 9.03516 96.1479 8.38151 96.5024 7.81815C96.8638 7.24393 97.1564 6.53692 96.9086 5.74116L94.9991 6.33575C94.9999 6.3385 95 6.33942 94.9999 6.33899C94.9999 6.33853 94.9999 6.33837 94.9999 6.33906C94.9999 6.33968 95.0002 6.35151 94.9934 6.37887C94.9779 6.44099 94.9326 6.55766 94.8097 6.75299C94.5522 7.16223 94.1086 7.68499 93.4164 8.49396L94.9361 9.79421ZM94.5887 10.2L94.9359 9.79438L93.4166 8.49379L93.0694 8.89939L94.5887 10.2ZM94.1263 10.7907C94.1272 10.7879 94.1292 10.7815 94.1371 10.7668C94.1462 10.75 94.1636 10.721 94.1983 10.6734C94.2755 10.5671 94.3882 10.4341 94.5886 10.2001L93.0695 8.89923C92.7411 9.28267 92.3774 9.67954 92.2166 10.1967L94.1263 10.7907ZM94.1663 11.5609C94.102 10.8877 94.1145 10.8287 94.1265 10.7899L92.2163 10.1975C92.0577 10.7089 92.1269 11.2431 92.1754 11.7511L94.1663 11.5609ZM94.1669 11.5666L94.1663 11.5609L92.1754 11.7511L92.176 11.7568L94.1669 11.5666ZM94.1819 11.709L94.1659 11.557L92.1769 11.7664L92.1929 11.9184L94.1819 11.709ZM93.421 12.7861L93.4217 12.7859L92.9532 10.8415L92.9525 10.8417L93.421 12.7861ZM94.2203 12.1053L94.1819 11.7158L92.1915 11.912L92.2299 12.3015L94.2203 12.1053ZM94.2209 12.1112L94.2205 12.107L92.2298 12.2998L92.2302 12.304L94.2209 12.1112ZM93.52 16.6057C94.1893 16.0978 94.3451 15.3338 94.3752 14.6628C94.4053 13.9939 94.3188 13.1246 94.2209 12.1114L92.2302 12.3038C92.3343 13.3814 92.3994 14.0802 92.3773 14.573C92.3552 15.0636 92.2549 15.055 92.311 15.0124L93.52 16.6057ZM89.1214 15.9094C90.0108 16.3188 90.7848 16.6781 91.4133 16.8583C92.0541 17.042 92.834 17.1258 93.5197 16.6059L92.3113 15.0122C92.385 14.9563 92.3981 15.0601 91.9645 14.9358C91.5186 14.808 90.9106 14.5313 89.9576 14.0926L89.1214 15.9094ZM88.6452 15.6902L89.1212 15.9094L89.9578 14.0927L89.4818 13.8735L88.6452 15.6902ZM88.0003 15.4202C87.9831 15.4202 87.9972 15.4137 88.0978 15.4503C88.2153 15.493 88.3686 15.5626 88.6448 15.69L89.4822 13.8737C89.0405 13.6701 88.5483 13.4202 88.0003 13.4202V15.4202ZM87.3571 15.6897C87.6327 15.5624 87.7857 15.4929 87.903 15.4502C88.0034 15.4137 88.0175 15.4202 88.0003 15.4202V13.4202C87.452 13.4202 86.9599 13.6702 86.5186 13.874L87.3571 15.6897ZM86.8774 15.9099L87.355 15.6907L86.5207 13.873L86.0431 14.0922L86.8774 15.9099ZM82.4792 16.6045C83.1649 17.1255 83.945 17.0427 84.5868 16.8589C85.2158 16.6787 85.9898 16.319 86.8788 15.9092L86.0417 14.0929C85.0891 14.5319 84.4815 14.8086 84.036 14.9362C83.6034 15.0602 83.6163 14.9566 83.6892 15.012L82.4792 16.6045ZM81.7797 12.1114C81.6817 13.1247 81.5952 13.9938 81.6252 14.6626C81.6552 15.333 81.8105 16.0973 82.4799 16.605L83.6885 15.0115C83.7455 15.0547 83.6452 15.0641 83.6232 14.573C83.6011 14.0803 83.6662 13.3814 83.7704 12.3038L81.7797 12.1114ZM81.7801 12.1072L81.7796 12.1114L83.7704 12.3038L83.7708 12.2996L81.7801 12.1072ZM81.8329 11.5648L81.7801 12.1064L83.7707 12.3004L83.8235 11.7588L81.8329 11.5648ZM81.8739 10.79C81.8859 10.8288 81.8985 10.8879 81.8329 11.5654L83.8236 11.7583C83.8731 11.2469 83.9433 10.7108 83.7841 10.1976L81.8739 10.79ZM81.4147 10.2035C81.6138 10.4365 81.7258 10.5687 81.8028 10.6747C81.8373 10.7222 81.8547 10.7511 81.8636 10.7677C81.8715 10.7823 81.8734 10.7885 81.8741 10.7908L83.7839 10.1968C83.6234 9.68076 83.2596 9.2839 82.9351 8.9042L81.4147 10.2035ZM81.4112 10.1995L81.4147 10.2035L82.9351 8.9042L82.9316 8.90012L81.4112 10.1995ZM81.0645 9.79449L81.4117 10.2001L82.9311 8.89949L82.5839 8.49389L81.0645 9.79449ZM79.0908 5.74191C78.8437 6.53738 79.1369 7.24407 79.498 7.81777C79.8525 8.38094 80.4148 9.03468 81.0642 9.79412L82.5842 8.49426C81.892 7.68488 81.4483 7.16181 81.1906 6.75237C81.0676 6.55691 81.0221 6.44013 81.0066 6.3779C80.9997 6.3505 81 6.33868 81 6.33812C81 6.33746 81 6.33768 81 6.3382C80.9999 6.3387 80.9999 6.33786 81.0008 6.33521L79.0908 5.74191ZM83.008 3.6432C82.0591 3.85805 81.2307 4.04268 80.6212 4.28301C79.9928 4.53079 79.342 4.93515 79.091 5.74127L81.0006 6.33585C81.0018 6.33192 81.0013 6.33444 80.9988 6.33811C80.9968 6.34116 80.9998 6.33525 81.0165 6.32096C81.0558 6.28724 81.1498 6.22443 81.3548 6.1436C81.7868 5.97327 82.4328 5.82406 83.4497 5.59382L83.008 3.6432ZM83.0114 3.64243L83.008 3.64319L83.4497 5.59382L83.453 5.59306L83.0114 3.64243ZM83.5191 3.52731L83.0111 3.64251L83.4534 5.59298L83.9614 5.47778L83.5191 3.52731ZM84.1988 3.34665C84.2089 3.33895 84.1992 3.35331 84.0979 3.38521C83.9786 3.42276 83.8157 3.46035 83.52 3.52709L83.9604 5.47801C84.4337 5.37118 84.9725 5.27101 85.4097 4.93843L84.1988 3.34665ZM84.1988 3.34664C84.1987 3.3467 84.1986 3.34678 84.1985 3.34688L85.41 4.9382C85.423 4.92829 85.4359 4.91819 85.4488 4.90792L84.1988 3.34664ZM85.4042 4.94244C85.4183 4.93181 85.4323 4.92104 85.446 4.91012L84.2016 3.34444C84.2024 3.34378 84.2033 3.34311 84.2042 3.34244L85.4042 4.94244ZM84.5866 2.71004C84.4352 2.98173 84.3487 3.13563 84.2753 3.24611C84.2423 3.29573 84.2215 3.32173 84.2099 3.33493C84.2044 3.34117 84.2011 3.34433 84.1999 3.34547C84.1993 3.34609 84.1989 3.34639 84.1988 3.34646C84.1987 3.34654 84.1987 3.34654 84.1987 3.34655L85.4096 4.93833C85.8392 4.61149 86.0891 4.12242 86.3337 3.68362L84.5866 2.71004ZM84.5317 2.82544L84.5317 2.82544L86.3886 3.56822L86.3886 3.56822L84.5317 2.82544ZM84.1999 3.34566C84.1997 3.34583 84.1996 3.34597 84.1995 3.34607L85.5326 4.83697C85.5518 4.8198 85.5706 4.80229 85.5891 4.78445L84.1999 3.34566ZM83.9089 3.89623L83.9088 3.89645L85.8802 4.23366L85.8802 4.23344L83.9089 3.89623ZM85.5347 4.83512C85.5544 4.81738 85.5734 4.79959 85.5916 4.78182L84.1975 3.34786L84.1974 3.34792L85.5347 4.83512Z" fill="#F5C752" mask="url(#path-9-inside-1_1_129)"/>
</g>
</g>
</g>
</svg>
