<svg width="32" height="32" viewBox="0 0 32 32" fill="none" xmlns="http://www.w3.org/2000/svg">
<g id="Group">
<path id="Vector" d="M26.3735 23.6278C24.1865 24.1529 21.9035 24.1275 19.7288 23.5537C17.554 22.98 15.5556 21.8759 13.9123 20.3402C12.269 18.8046 11.0322 16.8854 10.3127 14.7545C9.59313 12.6236 9.4133 10.3475 9.78929 8.13C9.73211 8.18523 9.67174 8.23705 9.60848 8.28521C9.16048 8.62601 8.60047 8.75241 7.48046 9.00521L6.46445 9.23562C2.5284 10.1268 0.560382 10.5716 0.091577 12.0773C-0.375628 13.5813 0.965187 15.1509 3.64842 18.2885L4.34283 19.0997C5.10443 19.9909 5.48684 20.4373 5.65804 20.9877C5.82924 21.5398 5.77164 22.135 5.65644 23.3238L5.55084 24.407C5.14603 28.5942 4.94283 30.6871 6.16845 31.6167C7.39406 32.5479 9.23728 31.6999 12.9205 30.0023L13.8757 29.5638C14.9221 29.0806 15.4453 28.8406 16.0006 28.8406C16.5558 28.8406 17.079 29.0806 18.127 29.5638L19.079 30.0023C22.7638 31.6983 24.6071 32.5463 25.8311 31.6183C27.0583 30.6871 26.8551 28.5942 26.4503 24.407L26.3735 23.6278Z" fill="#F5C752"/>
<path id="Vector_2" d="M11.445 5.45286L10.9202 6.39367C10.3442 7.42728 10.0562 7.94409 9.60818 8.28489C9.67218 8.23689 9.73138 8.18569 9.78898 8.12969C9.4129 10.3473 9.59272 12.6236 10.3123 14.7547C11.032 16.8858 12.2689 18.8051 13.9124 20.3408C15.5559 21.8765 17.5546 22.9805 19.7295 23.5541C21.9045 24.1277 24.1877 24.1529 26.3748 23.6275L26.3428 23.3235C26.2292 22.1347 26.1716 21.5394 26.3428 20.9874C26.514 20.437 26.8948 19.9906 27.658 19.0994L28.3524 18.2882C31.0356 15.1522 32.3764 13.5826 31.9076 12.0769C31.4404 10.5713 29.4724 10.1249 25.5364 9.2353L24.5187 9.0049C23.4003 8.7521 22.8403 8.6257 22.3907 8.28489C21.9427 7.94409 21.6547 7.42728 21.0787 6.39367L20.5555 5.45286C18.5283 1.81762 17.5155 0 16.0003 0C14.485 0 13.4722 1.81762 11.445 5.45286Z" fill="#E8BA46"/>
</g>
</svg>
