<svg width="19" height="23" viewBox="0 0 19 23" fill="none" xmlns="http://www.w3.org/2000/svg">
<path d="M9.5 9.5C11.8472 9.5 13.75 7.59721 13.75 5.25C13.75 2.90279 11.8472 1 9.5 1C7.15279 1 5.25 2.90279 5.25 5.25C5.25 7.59721 7.15279 9.5 9.5 9.5Z" stroke="black" stroke-width="1.5"/>
<path d="M17.9968 18C18 17.8257 18 17.6483 18 17.4688C18 14.8284 14.1941 12.6875 9.5 12.6875C4.80587 12.6875 1 14.8284 1 17.4688C1 20.1091 1 22.25 9.5 22.25C11.8704 22.25 13.58 22.0832 14.8125 21.7857" stroke="black" stroke-width="1.5" stroke-linecap="round"/>
</svg>
